<svg width="67" height="68" fill="none" xmlns="http://www.w3.org/2000/svg"><path d="M46.594 17.93a1.682 1.682 0 00-2.371 0L27.598 34.572l-4.757-5.043a1.676 1.676 0 00-1.228-.538c-.465 0-.91.195-1.226.538l-5.968 6.404a1.68 1.68 0 000 2.336L26.305 50.17h-.002c.318.316.747.49 1.194.488a1.68 1.68 0 001.194-.488l23.87-23.92a1.683 1.683 0 000-2.387l-5.967-5.933zM27.53 46.506l-9.548-9.564 3.631-3.9 4.723 5.043a1.682 1.682 0 002.42 0l16.66-16.675 3.58 3.581L27.53 46.506z" fill="#859BA6"/><path d="M33.5.667A33.336 33.336 0 009.93 10.43a33.336 33.336 0 000 47.14A33.336 33.336 0 0066.834 34a33.36 33.36 0 00-9.774-23.56A33.362 33.362 0 0033.5.667zm0 63.289a29.97 29.97 0 01-21.186-51.172 29.968 29.968 0 0121.198-8.772 29.967 29.967 0 0129.96 29.989 30.007 30.007 0 01-29.971 29.971v-.016z" fill="#859BA6"/></svg>