<svg width="146" height="31" fill="none" xmlns="http://www.w3.org/2000/svg"><g clip-path="url(#clip0_304_118)"><g clip-path="url(#clip1_304_118)" fill="#859BA6"><path d="M71.152 1.7h-8.844v28.46h8.844V1.7zM5.732 12.32L0 30.157h12.172L5.732 12.32zm1.805-5.294l1.84-5.34h6.688l9.763 28.471h-10.4l-7.89-23.13zm13.585-.071l1.84-5.269h6.653l9.766 28.471H28.943l-7.82-23.202zm117.009-2.408c0-5.396 7.869-5.396 7.869 0 0 5.395-7.869 5.395-7.869 0zm7.424 0c0-4.834-6.977-4.834-6.977 0s6.977 4.844 6.977 0zM143.933 6.8v.056h-.51l-1.293-1.667h-1.196v1.667h-.467V2.26h1.775c.882 0 1.541.56 1.541 1.471 0 .742-.467 1.288-1.171 1.4l1.321 1.666V6.8zm-3.001-2.03h1.28c.62 0 1.101-.378 1.101-1.036 0-.618-.481-1.037-1.101-1.037h-1.28V4.77zm-27.248 12.445l-4.211 12.942h8.879l-4.668-12.942zm1.52-3.635l1.273-3.696h7.147l6.936 20.273h-9.624l-5.732-16.577zm12.208-.074l1.343-3.622h7.147l6.866 20.273h-9.694l-5.662-16.65zm-67.581 8.21s.944-12.528-10.26-12.528c0 0-10.355-.625-10.355 10.92 0 0-.31 10.392 10.317 10.392 0 0 6.406-.023 8.93-4.776l-.906-.579s-2.38 3.592-7.67 3.592c0 0-1.534-.05-1.959-.142l.015-6.879h11.888zm-12.018-1.692V12.99c0-.612.365-1.717 1.65-1.717 1.156 0 1.533 1.14 1.533 1.753v6.996h-3.185l.002.002zm62.179 1.692s.944-12.528-10.26-12.528c0 0-10.355-.625-10.355 10.92 0 0-.31 10.392 10.318 10.392 0 0 6.405-.023 8.929-4.776l-.906-.579s-2.379 3.592-7.669 3.592c0 0-1.535-.05-1.96-.142l.015-6.879h11.888zm-12.017-1.692V12.99c0-.612.364-1.717 1.65-1.717 1.156 0 1.532 1.14 1.532 1.753v6.996h-3.185l.003.002z"/><path d="M72.403 7.818l12.018-5.28v3.444h48.35v1.836h-48.35v18.506s.052 1.37 1.203 1.37 2.177-1.568 2.177-1.568l.717.729S87.112 30.5 81.91 30.5c-5.203 0-6.633-3.673-6.633-6.175V7.818h-2.874z"/></g></g><defs><clipPath id="clip0_304_118"><path fill="#fff" transform="translate(0 .5)" d="M0 0h146v30H0z"/></clipPath><clipPath id="clip1_304_118"><path fill="#fff" transform="translate(0 .5)" d="M0 0h146v30H0z"/></clipPath></defs></svg>