<svg width="67" height="68" viewBox="0 0 67 68" fill="none" xmlns="http://www.w3.org/2000/svg">
<path d="M46.5936 17.9301C45.9381 17.2782 44.8793 17.2782 44.2227 17.9301L27.5981 34.5721L22.8409 29.5289C22.5243 29.1865 22.0799 28.9918 21.6132 28.9907C21.1477 28.9918 20.7033 29.1865 20.3867 29.5289L14.4195 35.9334C13.7898 36.5842 13.7898 37.6184 14.4195 38.2691L26.3047 50.1704H26.3035C26.6213 50.4859 27.0504 50.6606 27.4972 50.6582C27.9439 50.6606 28.3731 50.4859 28.6909 50.1704L52.5609 26.2501C52.8786 25.9347 53.058 25.5044 53.058 25.0565C53.058 24.6085 52.8786 24.1794 52.5609 23.8628L46.5936 17.9301ZM27.5312 46.5064L17.9829 36.942L21.6145 33.0421L26.3374 38.0854C26.654 38.4137 27.0914 38.5989 27.5475 38.5989C28.0036 38.5989 28.441 38.4137 28.7576 38.0854L45.4161 21.4103L48.9972 24.9914L27.5312 46.5064Z" fill="#859BA6"/>
<path d="M33.5003 0.667046C24.6592 0.667046 16.1817 4.17879 9.92961 10.4296C3.67875 16.6817 0.166992 25.1592 0.166992 34.0002C0.166992 42.8413 3.67875 51.3188 9.92961 57.5708C16.1817 63.8217 24.6592 67.3334 33.5003 67.3334C42.3414 67.3334 50.819 63.8217 57.071 57.5708C63.3219 51.3188 66.8337 42.8413 66.8337 34.0002C66.8254 25.1628 63.3102 16.6886 57.0602 10.4401C50.8118 4.19049 42.3375 0.675153 33.5 0.666748L33.5003 0.667046ZM33.5003 63.9559C25.5505 63.9559 17.9263 60.7971 12.3052 55.1746C6.68381 49.5532 3.52746 41.9281 3.52866 33.9783C3.52986 26.0285 6.68982 18.4044 12.3136 12.7845C17.9359 7.16432 25.5625 4.00919 33.5123 4.01249C41.4622 4.01484 49.0852 7.17603 54.7042 12.8007C60.3231 18.4242 63.4774 26.0507 63.4726 34.0005C63.4632 41.9471 60.303 49.5652 54.6843 55.1839C49.0656 60.8025 41.4472 63.9628 33.5009 63.9721L33.5003 63.9559Z" fill="#859BA6"/>
</svg>
